<svg width="201" height="127" viewBox="0 0 201 127" fill="none" xmlns="http://www.w3.org/2000/svg">
<path d="M157.231 31.7331C167.434 33.6563 176.432 42.4297 179.878 53.814C181.448 59.0035 181.202 68.9626 179.374 74.1767C176.269 83.0331 170.782 89.4121 163.168 93.0178C158.902 95.0386 158.094 95.2311 153.037 95.434C146.369 95.7012 142.548 94.972 137.572 92.4823C132.66 90.0252 128.494 85.5545 125.548 79.579C122.533 73.4623 121.531 68.4178 121.891 61.1535C122.355 51.7676 124.921 45.5587 130.827 39.5357C136.424 33.8275 142.251 31.3208 150.141 31.2281C152.424 31.2014 155.615 31.4288 157.231 31.7331Z" fill="#AFCB1E"/>
<path fill-rule="evenodd" clip-rule="evenodd" d="M112.427 42.9058C118.285 31.1354 127.924 23.6535 140.851 20.8425C147.273 19.4462 156.7 19.6573 163.646 21.3535C175.31 24.2022 185.283 32.5927 190.447 43.4512C193.627 50.1374 195.074 52.8302 195.049 63.206C194.779 72.0046 194.435 73.0439 192.708 78.0551C190.583 84.2177 188.091 88.4773 184.054 92.8373C177.854 99.5344 171.48 103.331 162.724 105.545L157.745 106.804L159.775 107.778C164.485 110.037 170.052 111.535 174.349 111.698C176.693 111.787 177.924 111.765 178.291 112.317C178.715 112.954 177.99 114.356 176.502 117.577L174.588 121.717H171.15C167.304 121.717 162.863 120.434 156.623 117.521C145.443 112.3 139.457 111.29 134.521 113.788C131.578 115.278 131.255 115.169 129.638 112.142L128.56 110.123L130.427 108.564C131.455 107.706 133.167 106.727 134.233 106.387C137.12 105.466 137.305 104.999 135.076 104.263C132.672 103.469 127.094 100.376 124.473 98.3836C121.77 96.3279 116.944 91.2884 115.057 88.5493C110.421 81.8201 107.886 72.804 107.899 63.0859C107.91 54.6201 108.988 49.8161 112.427 42.9058ZM27.089 31.4523L26.9319 26.4072L26.7754 21.3622H61.9743H97.1738V33.9066V46.451H91.9925H86.8111V39.0809V31.7102L68.6763 31.8542L50.5415 31.9977L50.3872 43.1785C50.3021 49.328 50.3681 54.9113 50.5339 55.5865L50.8349 56.8137H66.3687H81.9024V61.9951V67.1764H66.4167C52.799 67.1764 50.8911 67.2806 50.5999 68.0393C50.2001 69.0805 50.1516 93.5071 50.547 94.5384C50.7728 95.1264 54.1238 95.2377 68.1364 95.1226C77.6575 95.0446 85.7547 94.983 86.1293 94.9862C86.6426 94.9906 86.8111 93.1007 86.8111 87.3358V79.6799L91.8561 79.8364L96.9011 79.9935L97.0473 92.6742C97.1624 102.626 97.0451 105.357 96.5019 105.366C96.1218 105.372 80.348 105.374 61.4497 105.369L27.089 105.361L26.9319 100.45C26.8141 96.7501 26.9488 95.5223 27.4773 95.476C27.864 95.4416 30.266 95.3805 32.8158 95.3396L37.4517 95.2649L37.5925 63.5146L37.7332 31.7648L32.4111 31.6082L27.089 31.4523ZM179.878 53.814C176.432 42.4297 167.434 33.6563 157.231 31.7331C155.615 31.4288 152.424 31.2014 150.141 31.2281C142.251 31.3208 136.424 33.8275 130.827 39.5357C124.921 45.5587 122.355 51.7676 121.891 61.1535C121.531 68.4178 122.533 73.4623 125.548 79.579C128.494 85.5545 132.66 90.0252 137.572 92.4823C142.548 94.972 146.369 95.7012 153.037 95.434C158.094 95.2311 158.902 95.0386 163.168 93.0178C170.782 89.4121 176.269 83.0331 179.374 74.1767C181.202 68.9626 181.448 59.0035 179.878 53.814Z" fill="black"/>
<path d="M5 63.0859V121.172H72.3578H139.716V119.536C139.716 118.595 139.426 117.896 139.034 117.89C138.659 117.885 109.332 117.864 73.8615 117.844C38.3915 117.824 9.24382 117.602 9.08892 117.351C8.77477 116.843 8.69186 9.30763 9.00547 8.99402C9.11455 8.88494 21.1359 8.79604 35.719 8.79659L62.234 8.79768L62.1625 6.89856L62.0911 5H33.5455H5V63.0859Z" fill="#119DD2"/>
<path d="M174.528 9.40625V8.27273H181.283V9.40625H178.56V17H177.247V9.40625H174.528ZM182.775 8.27273H184.373L187.152 15.0568H187.254L190.032 8.27273H191.63V17H190.377V10.6847H190.297L187.723 16.9872H186.683L184.109 10.6804H184.028V17H182.775V8.27273Z" fill="black"/>
</svg>
